<svg width="46px" height="60px" xmlns="http://www.w3.org/2000/svg" xmlns:svg="http://www.w3.org/2000/svg" version="1.1" xml:space="preserve">
    <path d="m43.75988,21.00005c0,-11.04587 -8.95417,-20.00005 -20.00005,-20.00005c-11.04466,0 -19.99883,8.95417 -19.99883,20.00005c0,2.15858 0.34659,4.23691 0.98018,6.18511l0,0c0,0 1.68309,7.55444 18.89339,30.08885c9.85409,-12.90408 14.61514,-20.89024 16.8856,-25.36428c2.04549,-3.13876 3.2397,-6.88436 3.2397,-10.90967zm-20.22138,12.88827c-6.99503,0 -12.66694,-5.67069 -12.66694,-12.66694c0,-6.99503 5.67191,-12.66572 12.66694,-12.66572s12.66694,5.67069 12.66694,12.66572c-0.00122,6.99625 -5.67191,12.66694 -12.66694,12.66694z" fill="#ff003f"/>
    <path d="m23.206,46.412c-0.036,-0.047 -0.07,-0.092 -0.105,-0.139c-0.036,0.047 -0.07,0.091 -0.106,0.139l0.211,0z"/>
</svg>
